<svg height="512" viewBox="0 0 512 512" width="512" xmlns="http://www.w3.org/2000/svg"><g id="Events_Cancelling" data-name="Events Cancelling"><g id="Flat"><path d="m448 472h-440a8 8 0 0 1 -8-8v-360h448z" fill="#bce7f7"/><path d="m395.5 104c-60.684 168.513-212.212 293.647-395.5 316.31v43.69a8 8 0 0 0 8 8h440v-368z" fill="#a7d9e8"/><path d="m488 480h-56v-376h64v368a8 8 0 0 1 -8 8z" fill="#93cbd8"/><path d="m319.945 52a8.038 8.038 0 0 1 -7.945-8 28.009 28.009 0 0 0 -34.09-27.331 8 8 0 0 1 -9.394-5.415 7.987 7.987 0 0 1 5.822-10.184 43.956 43.956 0 0 1 9.662-1.07c40.589 0 54.848 52.1 35.945 52z" fill="#d2d1db"/><path d="m215.753 52a8.038 8.038 0 0 1 -7.945-8 28.009 28.009 0 0 0 -34.09-27.331 8 8 0 0 1 -9.394-5.415 7.987 7.987 0 0 1 5.822-10.184 43.963 43.963 0 0 1 9.662-1.07c40.592 0 54.848 52.1 35.945 52z" fill="#d2d1db"/><path d="m111.945 52a8.038 8.038 0 0 1 -7.945-8 28.009 28.009 0 0 0 -34.09-27.332 8 8 0 0 1 -9.394-5.415 7.987 7.987 0 0 1 5.822-10.183 43.956 43.956 0 0 1 9.662-1.07c40.589 0 54.848 52.1 35.945 52z" fill="#d2d1db"/><path d="m423.945 52a8.038 8.038 0 0 1 -7.945-8 28.009 28.009 0 0 0 -34.09-27.331 8 8 0 0 1 -9.394-5.415 7.987 7.987 0 0 1 5.822-10.184 43.956 43.956 0 0 1 9.662-1.07c40.589 0 54.848 52.1 35.945 52z" fill="#d2d1db"/><path d="m448 120h-448v-72a8 8 0 0 1 8-8h440z" fill="#9ba3d1"/><path d="m388 72a28 28 0 0 1 -6.2-55.308 7.978 7.978 0 0 0 6.2-7.792 8.005 8.005 0 0 0 -9.768-7.812 44.076 44.076 0 0 0 -34.232 42.912c0 40.532 52.094 54.866 52 35.949a8.038 8.038 0 0 0 -8-7.949z" fill="#e3e2e8"/><path d="m496 120h-64v-80h56a8 8 0 0 1 8 8z" fill="#8a95c4"/><path d="m284 72a28 28 0 0 1 -6.2-55.308 7.978 7.978 0 0 0 6.2-7.792 8.005 8.005 0 0 0 -9.768-7.812 44.076 44.076 0 0 0 -34.232 42.912c0 40.532 52.094 54.866 52 35.949a8.038 8.038 0 0 0 -8-7.949z" fill="#e3e2e8"/><path d="m179.807 72a28 28 0 0 1 -6.2-55.308 7.978 7.978 0 0 0 6.2-7.787 8.005 8.005 0 0 0 -9.768-7.812 44.076 44.076 0 0 0 -34.231 42.907c0 40.532 52.094 54.866 52 35.949a8.038 8.038 0 0 0 -8.001-7.949z" fill="#e3e2e8"/><path d="m76 72a28 28 0 0 1 -6.2-55.308 7.978 7.978 0 0 0 6.2-7.792 8.005 8.005 0 0 0 -9.768-7.812 44.076 44.076 0 0 0 -34.232 42.912c0 40.532 52.094 54.866 52 35.949a8.038 8.038 0 0 0 -8-7.949z" fill="#e3e2e8"/><g fill="#93cbd8"><rect height="64" rx="8" width="64" x="32" y="136"/><rect height="64" rx="8" width="64" x="112" y="136"/><rect height="64" rx="8" width="64" x="192" y="136"/><rect height="64" rx="8" width="64" x="272" y="136"/><rect height="64" rx="8" width="64" x="352" y="136"/><rect height="64" rx="8" width="64" x="32" y="216"/><rect height="64" rx="8" width="64" x="112" y="216"/><rect height="64" rx="8" width="64" x="192" y="216"/><rect height="64" rx="8" width="64" x="272" y="216"/><rect height="64" rx="8" width="64" x="352" y="216"/><rect height="64" rx="8" width="64" x="32" y="296"/><rect height="64" rx="8" width="64" x="112" y="296"/><rect height="64" rx="8" width="64" x="192" y="296"/><rect height="64" rx="8" width="64" x="32" y="376"/><rect height="64" rx="8" width="64" x="112" y="376"/><rect height="64" rx="8" width="64" x="192" y="376"/></g><circle cx="384" cy="384" fill="#f27c6d" r="128"/><path d="m442.058 269.942a127.972 127.972 0 0 1 -172.116 172.116 127.989 127.989 0 1 0 172.116-172.116z" fill="#ed6464"/><path d="m395.313 384 50.344-50.343a8 8 0 0 0 -11.314-11.314l-50.343 50.344-50.343-50.344a8 8 0 0 0 -11.314 11.314l50.344 50.343-50.344 50.343a8.01 8.01 0 0 0 5.657 13.657c6.022 0 3.758-1.67 56-52.687 52.245 51.019 49.98 52.687 56 52.687a8.01 8.01 0 0 0 5.657-13.657z" fill="#fff"/><circle cx="372" cy="284" fill="#ffa596" r="20"/><circle cx="412" cy="300" fill="#ffa596" r="12"/></g></g></svg>