<svg height="512" viewBox="0 0 128 128" width="512" xmlns="http://www.w3.org/2000/svg"><g><circle cx="64" cy="63.997" fill="#0d70b2" r="62.25"/><circle cx="64" cy="63.997" fill="#e1e4fb" r="52.25"/><g fill="#00ddc1"><path d="m72.812 37.125h-17.625a5 5 0 0 1 -5-5 5 5 0 0 1 5-5h17.625a5 5 0 0 1 5 5 5 5 0 0 1 -5 5z"/><path d="m77.812 52.141a5 5 0 0 0 -5-5h-17.625a5 5 0 0 0 -5 5 5 5 0 0 0 5 5h3.813v33.734h-3.813a5 5 0 0 0 -5 5 5 5 0 0 0 5 5h17.625a5 5 0 0 0 5-5 5 5 0 0 0 -5-5h-3.812v-33.734h3.812a5 5 0 0 0 5-5z"/></g></g></svg>